# xmcd
#
# Track frame offsets: 
#        150
#        19989
#        39508
#        58578
#        77258
#        95745
#        118849
#        135759
#        154116
#        171437
#        190618
#        209560
#        228552
#        251603
#        275691
#
# Disc length: 4035 seconds
#
# Revision: 2
# Processed by: cddbd v1.5.2PL0 Copyright (c) Steve Scherf et al.
# Submitted via: ExactAudioCopyFreeDBPlugin 1.0
#
DISCID=cd0fc10f
DTITLE=Lady Gaga - Born This Way
DYEAR=2011
DGENRE=pOP
TTITLE0=Marry The Night
TTITLE1=Born This Way
TTITLE2=Government Hooker
TTITLE3=Judas
TTITLE4=Americano
TTITLE5=Hair
TTITLE6=Scheisse
TTITLE7=Bloody Mary
TTITLE8=Bad Kids
TTITLE9=Highway Unicorn (Road To Love)
TTITLE10=Heavy Metal Lover
TTITLE11=Electric Chapel
TTITLE12=You And I
TTITLE13=The Edge Of Glory
TTITLE14=Born This Way Jost And Naaf Remix)
EXTD=
EXTT0=
EXTT1=
EXTT2=
EXTT3=
EXTT4=
EXTT5=
EXTT6=
EXTT7=
EXTT8=
EXTT9=
EXTT10=
EXTT11=
EXTT12=
EXTT13=
EXTT14=
PLAYORDER=
